{
  "accessors": [
    {
      "bufferView": 2,
      "componentType": 5126,
      "count": 7079,
      "max": [
        12.916259765625,
        13.179779052734375,
        22.96417236328125
      ],
      "min": [
        -12.664825439453125,
        -39.535888671875,
        0.54232800006866455
      ],
      "type": "VEC3"
    },
    {
      "bufferView": 2,
      "byteOffset": 84948,
      "componentType": 5126,
      "count": 7079,
      "max": [
        1,
        1,
        1
      ],
      "min": [
        -1,
        -1,
        -1
      ],
      "type": "VEC3"
    },
    {
      "bufferView": 3,
      "componentType": 5126,
      "count": 7079,
      "max": [
        1,
        1,
        1,
        1
      ],
      "min": [
        -1,
        -1,
        -1,
        -1
      ],
      "type": "VEC4"
    },
    {
      "bufferView": 1,
      "componentType": 5126,
      "count": 7079,
      "max": [
        0.58082199096679688,
        0.98239797353744507
      ],
      "min": [
        0.13739499449729919,
        0.46691301465034485
      ],
      "type": "VEC2"
    },
    {
      "bufferView": 0,
      "componentType": 5125,
      "count": 13968,
      "max": [
        7078
      ],
      "min": [
        0
      ],
      "type": "SCALAR"
    },
    {
      "bufferView": 2,
      "byteOffset": 169896,
      "componentType": 5126,
      "count": 6802,
      "max": [
        12.934295654296875,
        13.179779052734375,
        22.53546142578125
      ],
      "min": [
        -8.7822265625,
        -39.0897216796875,
        7.4382929801940918
      ],
      "type": "VEC3"
    },
    {
      "bufferView": 2,
      "byteOffset": 251520,
      "componentType": 5126,
      "count": 6802,
      "max": [
        1,
        1,
        0.99991589784622192
      ],
      "min": [
        -1,
        -1,
        -0.99991601705551147
      ],
      "type": "VEC3"
    },
    {
      "bufferView": 3,
      "byteOffset": 113264,
      "componentType": 5126,
      "count": 6802,
      "max": [
        1,
        1,
        1,
        1
      ],
      "min": [
        -1,
        -1,
        -1,
        -1
      ],
      "type": "VEC4"
    },
    {
      "bufferView": 1,
      "byteOffset": 56632,
      "componentType": 5126,
      "count": 6802,
      "max": [
        0.58518797159194946,
        0.97919297218322754
      ],
      "min": [
        0.12845399975776672,
        0.46906799077987671
      ],
      "type": "VEC2"
    },
    {
      "bufferView": 0,
      "byteOffset": 55872,
      "componentType": 5125,
      "count": 14940,
      "max": [
        6801
      ],
      "min": [
        0
      ],
      "type": "SCALAR"
    },
    {
      "bufferView": 2,
      "byteOffset": 333144,
      "componentType": 5126,
      "count": 5462,
      "max": [
        11.808807373046875,
        12.947265625,
        23.03863525390625
      ],
      "min": [
        -12.686981201171875,
        -39.7589111328125,
        0.54232800006866455
      ],
      "type": "VEC3"
    },
    {
      "bufferView": 2,
      "byteOffset": 398688,
      "componentType": 5126,
      "count": 5462,
      "max": [
        1,
        1,
        1
      ],
      "min": [
        -1,
        -1,
        -1
      ],
      "type": "VEC3"
    },
    {
      "bufferView": 3,
      "byteOffset": 222096,
      "componentType": 5126,
      "count": 5462,
      "max": [
        0.98513692617416382,
        1,
        1,
        1
      ],
      "min": [
        -0.99747556447982788,
        -1,
        -1,
        1
      ],
      "type": "VEC4"
    },
    {
      "bufferView": 1,
      "byteOffset": 111048,
      "componentType": 5126,
      "count": 5462,
      "max": [
        0.58543300628662109,
        0.98239797353744507
      ],
      "min": [
        0.13669100403785706,
        0.46410799026489258
      ],
      "type": "VEC2"
    },
    {
      "bufferView": 0,
      "byteOffset": 115632,
      "componentType": 5125,
      "count": 14988,
      "max": [
        5461
      ],
      "min": [
        0
      ],
      "type": "SCALAR"
    },
    {
      "bufferView": 2,
      "byteOffset": 464232,
      "componentType": 5126,
      "count": 5300,
      "max": [
        9.4809465408325195,
        4.2601580619812012,
        20.556955337524414
      ],
      "min": [
        -7.2723541259765625,
        -39.7589111328125,
        0.21209700405597687
      ],
      "type": "VEC3"
    },
    {
      "bufferView": 2,
      "byteOffset": 527832,
      "componentType": 5126,
      "count": 5300,
      "max": [
        1,
        1,
        1
      ],
      "min": [
        -1,
        -1,
        -1
      ],
      "type": "VEC3"
    },
    {
      "bufferView": 3,
      "byteOffset": 309488,
      "componentType": 5126,
      "count": 5300,
      "max": [
        1,
        1,
        1,
        1
      ],
      "min": [
        -0.99997472763061523,
        -1,
        -1,
        -1
      ],
      "type": "VEC4"
    },
    {
      "bufferView": 1,
      "byteOffset": 154744,
      "componentType": 5126,
      "count": 5300,
      "max": [
        0.98050999641418457,
        0.98239797353744507
      ],
      "min": [
        0.13669100403785706,
        0.34964999556541443
      ],
      "type": "VEC2"
    },
    {
      "bufferView": 0,
      "byteOffset": 175584,
      "componentType": 5125,
      "count": 14892,
      "max": [
        5299
      ],
      "min": [
        0
      ],
      "type": "SCALAR"
    },
    {
      "bufferView": 2,
      "byteOffset": 591432,
      "componentType": 5126,
      "count": 5466,
      "max": [
        13.102780342102051,
        6.2635269165039062,
        23.063055038452148
      ],
      "min": [
        -12.840167999267578,
        -32.1312255859375,
        5.6815800666809082
      ],
      "type": "VEC3"
    },
    {
      "bufferView": 2,
      "byteOffset": 657024,
      "componentType": 5126,
      "count": 5466,
      "max": [
        1,
        1,
        1
      ],
      "min": [
        -1,
        -1,
        -1
      ],
      "type": "VEC3"
    },
    {
      "bufferView": 3,
      "byteOffset": 394288,
      "componentType": 5126,
      "count": 5466,
      "max": [
        1,
        1,
        1,
        1
      ],
      "min": [
        -0.99998456239700317,
        -1,
        -1,
        -1
      ],
      "type": "VEC4"
    },
    {
      "bufferView": 1,
      "byteOffset": 197144,
      "componentType": 5126,
      "count": 5466,
      "max": [
        0.98050999641418457,
        0.98924100399017334
      ],
      "min": [
        0.20079599320888519,
        0.34126898646354675
      ],
      "type": "VEC2"
    },
    {
      "bufferView": 0,
      "byteOffset": 235152,
      "componentType": 5125,
      "count": 14808,
      "max": [
        5465
      ],
      "min": [
        0
      ],
      "type": "SCALAR"
    },
    {
      "bufferView": 2,
      "byteOffset": 722616,
      "componentType": 5126,
      "count": 2136,
      "max": [
        13.072507858276367,
        5.3686790466308594,
        22.783540725708008
      ],
      "min": [
        -12.786066055297852,
        -31.7021484375,
        -0.022552000358700752
      ],
      "type": "VEC3"
    },
    {
      "bufferView": 2,
      "byteOffset": 748248,
      "componentType": 5126,
      "count": 2136,
      "max": [
        1,
        1,
        0.99197524785995483
      ],
      "min": [
        -1,
        -1,
        -0.99937725067138672
      ],
      "type": "VEC3"
    },
    {
      "bufferView": 3,
      "byteOffset": 481744,
      "componentType": 5126,
      "count": 2136,
      "max": [
        1,
        1,
        1,
        1
      ],
      "min": [
        -0.99970328807830811,
        -1,
        -1,
        -1
      ],
      "type": "VEC4"
    },
    {
      "bufferView": 1,
      "byteOffset": 240872,
      "componentType": 5126,
      "count": 2136,
      "max": [
        0.53840500116348267,
        0.95319998264312744
      ],
      "min": [
        0,
        0
      ],
      "type": "VEC2"
    },
    {
      "bufferView": 0,
      "byteOffset": 294384,
      "componentType": 5125,
      "count": 7770,
      "max": [
        2135
      ],
      "min": [
        0
      ],
      "type": "SCALAR"
    },
    {
      "bufferView": 2,
      "byteOffset": 773880,
      "componentType": 5126,
      "count": 42562,
      "max": [
        13.8199462890625,
        39.7589111328125,
        28.489990234375
      ],
      "min": [
        -13.8199462890625,
        -39.535888671875,
        0.85006701946258545
      ],
      "type": "VEC3"
    },
    {
      "bufferView": 2,
      "byteOffset": 1284624,
      "componentType": 5126,
      "count": 42562,
      "max": [
        1,
        1,
        1
      ],
      "min": [
        -1,
        -1,
        -1
      ],
      "type": "VEC3"
    },
    {
      "bufferView": 3,
      "byteOffset": 515920,
      "componentType": 5126,
      "count": 42562,
      "max": [
        1,
        1,
        1,
        1
      ],
      "min": [
        -1,
        -1,
        -1,
        -1
      ],
      "type": "VEC4"
    },
    {
      "bufferView": 1,
      "byteOffset": 257960,
      "componentType": 5126,
      "count": 42562,
      "max": [
        0.99004000425338745,
        0.99006497859954834
      ],
      "min": [
        0.0097239995375275612,
        0.010289999656379223
      ],
      "type": "VEC2"
    },
    {
      "bufferView": 0,
      "byteOffset": 325464,
      "componentType": 5125,
      "count": 62712,
      "max": [
        42561
      ],
      "min": [
        0
      ],
      "type": "SCALAR"
    },
    {
      "bufferView": 2,
      "byteOffset": 1795368,
      "componentType": 5126,
      "count": 1344,
      "max": [
        3.8744659423828125,
        -14.099854469299316,
        18.54449462890625
      ],
      "min": [
        -3.8744509220123291,
        -32.640380859375,
        10.7955322265625
      ],
      "type": "VEC3"
    },
    {
      "bufferView": 2,
      "byteOffset": 1811496,
      "componentType": 5126,
      "count": 1344,
      "max": [
        0.96968311071395874,
        1,
        0.83787119388580322
      ],
      "min": [
        -0.971477210521698,
        -1,
        -0.83786869049072266
      ],
      "type": "VEC3"
    },
    {
      "bufferView": 3,
      "byteOffset": 1196912,
      "componentType": 5126,
      "count": 1344,
      "max": [
        1,
        0.97147715091705322,
        0.083864726126194,
        1
      ],
      "min": [
        -1,
        -0.96968311071395874,
        -0.99989920854568481,
        1
      ],
      "type": "VEC4"
    },
    {
      "bufferView": 1,
      "byteOffset": 598456,
      "componentType": 5126,
      "count": 1344,
      "max": [
        0.54494702816009521,
        0.97792202234268188
      ],
      "min": [
        0.13789500296115875,
        0.82414799928665161
      ],
      "type": "VEC2"
    },
    {
      "bufferView": 0,
      "byteOffset": 576312,
      "componentType": 5125,
      "count": 7032,
      "max": [
        1343
      ],
      "min": [
        0
      ],
      "type": "SCALAR"
    }
  ],
  "asset": {
    "extras": {
      "author": "Wolf van Veen (https://sketchfab.com/wolfvanveen)",
      "license": "CC-BY-4.0 (http://creativecommons.org/licenses/by/4.0/)",
      "source": "https://sketchfab.com/3d-models/satellite-9be57c6e0b48411ebba7725c8267f264",
      "title": "Satellite"
    },
    "generator": "Sketchfab-6.40.1",
    "version": "2.0"
  },
  "bufferViews": [
    {
      "buffer": 0,
      "byteLength": 604440,
      "byteOffset": 0,
      "name": "floatBufferViews",
      "target": 34963
    },
    {
      "buffer": 0,
      "byteLength": 609208,
      "byteOffset": 604440,
      "byteStride": 8,
      "name": "floatBufferViews",
      "target": 34962
    },
    {
      "buffer": 0,
      "byteLength": 1827624,
      "byteOffset": 1213648,
      "byteStride": 12,
      "name": "floatBufferViews",
      "target": 34962
    },
    {
      "buffer": 0,
      "byteLength": 1218416,
      "byteOffset": 3041272,
      "byteStride": 16,
      "name": "floatBufferViews",
      "target": 34962
    }
  ],
  "buffers": [
    {
      "byteLength": 4259688,
      "uri": "scene.bin"
    }
  ],
  "extensionsRequired": [
    "KHR_materials_pbrSpecularGlossiness"
  ],
  "extensionsUsed": [
    "KHR_materials_pbrSpecularGlossiness"
  ],
  "images": [
    {
      "uri": "textures/blinn1SG_diffuse.png"
    },
    {
      "uri": "textures/blinn1SG_specularGlossiness.png"
    }
  ],
  "materials": [
    {
      "doubleSided": false,
      "emissiveFactor": [
        0,
        0,
        0
      ],
      "extensions": {
        "KHR_materials_pbrSpecularGlossiness": {
          "diffuseFactor": [
            1,
            1,
            1,
            1
          ],
          "diffuseTexture": {
            "index": 0,
            "texCoord": 0
          },
          "glossinessFactor": 0.90000000000000002,
          "specularFactor": [
            1,
            1,
            1
          ],
          "specularGlossinessTexture": {
            "index": 1,
            "texCoord": 0
          }
        }
      },
      "name": "blinn1SG"
    }
  ],
  "meshes": [
    {
      "primitives": [
        {
          "attributes": {
            "NORMAL": 1,
            "POSITION": 0,
            "TANGENT": 2,
            "TEXCOORD_0": 3
          },
          "indices": 4,
          "material": 0,
          "mode": 4
        }
      ]
    },
    {
      "primitives": [
        {
          "attributes": {
            "NORMAL": 6,
            "POSITION": 5,
            "TANGENT": 7,
            "TEXCOORD_0": 8
          },
          "indices": 9,
          "material": 0,
          "mode": 4
        }
      ]
    },
    {
      "primitives": [
        {
          "attributes": {
            "NORMAL": 11,
            "POSITION": 10,
            "TANGENT": 12,
            "TEXCOORD_0": 13
          },
          "indices": 14,
          "material": 0,
          "mode": 4
        }
      ]
    },
    {
      "primitives": [
        {
          "attributes": {
            "NORMAL": 16,
            "POSITION": 15,
            "TANGENT": 17,
            "TEXCOORD_0": 18
          },
          "indices": 19,
          "material": 0,
          "mode": 4
        }
      ]
    },
    {
      "primitives": [
        {
          "attributes": {
            "NORMAL": 21,
            "POSITION": 20,
            "TANGENT": 22,
            "TEXCOORD_0": 23
          },
          "indices": 24,
          "material": 0,
          "mode": 4
        }
      ]
    },
    {
      "primitives": [
        {
          "attributes": {
            "NORMAL": 26,
            "POSITION": 25,
            "TANGENT": 27,
            "TEXCOORD_0": 28
          },
          "indices": 29,
          "material": 0,
          "mode": 4
        }
      ]
    },
    {
      "primitives": [
        {
          "attributes": {
            "NORMAL": 31,
            "POSITION": 30,
            "TANGENT": 32,
            "TEXCOORD_0": 33
          },
          "indices": 34,
          "material": 0,
          "mode": 4
        }
      ]
    },
    {
      "primitives": [
        {
          "attributes": {
            "NORMAL": 36,
            "POSITION": 35,
            "TANGENT": 37,
            "TEXCOORD_0": 38
          },
          "indices": 39,
          "material": 0,
          "mode": 4
        }
      ]
    }
  ],
  "nodes": [
    {
      "children": [
        1
      ],
      "name": "RootNode (gltf orientation matrix)",
      "rotation": [
        -0.70710678118654746,
        -0,
        -0,
        0.70710678118654757
      ]
    },
    {
      "children": [
        2
      ],
      "name": "RootNode (model correction matrix)"
    },
    {
      "children": [
        3,
        4,
        5,
        6,
        7,
        8,
        9,
        10
      ],
      "name": "57d0470a8b144094a468d747f1a53624.obj.cleaner"
    },
    {
      "mesh": 0,
      "name": ""
    },
    {
      "mesh": 1,
      "name": ""
    },
    {
      "mesh": 2,
      "name": ""
    },
    {
      "mesh": 3,
      "name": ""
    },
    {
      "mesh": 4,
      "name": ""
    },
    {
      "mesh": 5,
      "name": ""
    },
    {
      "mesh": 6,
      "name": ""
    },
    {
      "mesh": 7,
      "name": ""
    }
  ],
  "samplers": [
    {
      "magFilter": 9729,
      "minFilter": 9987,
      "wrapS": 10497,
      "wrapT": 10497
    }
  ],
  "scene": 0,
  "scenes": [
    {
      "name": "OSG_Scene",
      "nodes": [
        0
      ]
    }
  ],
  "textures": [
    {
      "sampler": 0,
      "source": 0
    },
    {
      "sampler": 0,
      "source": 1
    }
  ]
}

